# xmcd
#
# Track frame offsets:
#	150
#	13450
#	24855
#	36100
#	53095
#	64370
#	78202
#	88842
#	104585
#	116397
#	126567
#	148087
#	162175
#	182517
#	195675
#	220152
#
# Disc length: 3186 seconds
#
# Revision: 0
# Processed by: cddbd v1.5PL3 Copyright (c) Steve Scherf et al.
# Submitted via: audiograbber 1.80
#
DISCID=e20c7010
DTITLE=Otte Borenberg and Uslingarna - Det är sån jag är
DYEAR=1900
DGENRE=
TTITLE0=Du kan väl aldrig (vilja ha en sån som jag)
TTITLE1=Galen i dig
TTITLE2=Jag minns den vind
TTITLE3=Du är så jävla underbar
TTITLE4=Är det detta som är rock and roll
TTITLE5=Bombay
TTITLE6=Älskade djävul
TTITLE7=När knopparna brister
TTITLE8=Den blackes skyffel
TTITLE9=Du är för jävlig
TTITLE10=När vindarna vänder
TTITLE11=Du är den enda
TTITLE12=Du är fruktad
TTITLE13=Det är sån jag är
TTITLE14=En sån jävla morgon
TTITLE15=Det som gör himlen blå
EXTD=
EXTT0=
EXTT1=
EXTT2=
EXTT3=
EXTT4=
EXTT5=
EXTT6=
EXTT7=
EXTT8=
EXTT9=
EXTT10=
EXTT11=
EXTT12=
EXTT13=
EXTT14=
EXTT15=
PLAYORDER=
